<svg xmlns="http://www.w3.org/2000/svg" xmlns:xlink="http://www.w3.org/1999/xlink" width="500" zoomAndPan="magnify" viewBox="0 0 375 225" height="300" preserveAspectRatio="xMidYMid meet" version="1.0"><defs><g/></defs><g fill="#f6f0d6" fill-opacity="1"><g transform="translate(6.375, 166.451154)"><g><path d="M 85.378906 -93.457031 C 72.707031 -81.890625 54.714844 -86.296875 48.105469 -91.4375 L 42.414062 -76.746094 C 55.265625 -67.75 75.460938 -67.015625 89.96875 -76.929688 Z M 91.070312 -60.039062 C 99.148438 -52.328125 108.144531 -44.25 110.898438 -31.398438 C 113.101562 -0.183594 19.828125 4.957031 30.480469 -29.929688 C 32.867188 -37.824219 41.3125 -42.414062 48.839844 -45.167969 C 44.984375 -50.492188 40.210938 -55.265625 36.355469 -60.957031 C 23.5 -55.265625 11.566406 -44.617188 8.445312 -29.378906 C 6.058594 -14.320312 14.136719 2.203125 28.460938 7.894531 C 54.898438 19.277344 86.664062 16.339844 113.46875 0.734375 C 122.464844 -5.691406 130.359375 -14.136719 132.75 -27.726562 C 134.035156 -42.046875 126.503906 -55.449219 117.507812 -65.914062 Z M 91.070312 -60.039062 "/></g></g></g><g fill="#f6f0d6" fill-opacity="1"><g transform="translate(146.643669, 166.451154)"><g/></g></g><g fill="#f6f0d6" fill-opacity="1"><g transform="translate(165.003448, 166.451154)"><g><path d="M 91.070312 -60.039062 C 99.148438 -52.328125 108.144531 -44.25 110.898438 -31.398438 C 113.101562 -0.183594 19.828125 4.957031 30.480469 -29.929688 C 32.867188 -37.824219 41.3125 -42.414062 48.839844 -45.167969 C 44.984375 -50.492188 40.210938 -55.265625 36.355469 -60.957031 C 23.5 -55.265625 11.566406 -44.617188 8.445312 -29.378906 C 6.058594 -14.320312 14.136719 2.203125 28.460938 7.894531 C 54.898438 19.277344 86.664062 16.339844 113.46875 0.734375 C 122.464844 -5.691406 130.359375 -14.136719 132.75 -27.726562 C 134.035156 -42.046875 126.503906 -55.449219 117.507812 -65.914062 Z M 67.015625 27.542969 C 60.40625 26.070312 54.53125 30.296875 53.0625 36.539062 C 51.777344 42.78125 55.816406 49.390625 62.058594 50.492188 C 68.667969 51.777344 74.542969 48.105469 76.011719 41.496094 C 77.296875 35.253906 73.441406 28.644531 67.015625 27.542969 Z M 67.015625 27.542969 "/></g></g></g><g fill="#f6f0d6" fill-opacity="1"><g transform="translate(305.272117, 166.451154)"><g/></g></g><g fill="#f6f0d6" fill-opacity="1"><g transform="translate(323.631896, 166.451154)"><g><path d="M 0.917969 -150.007812 C -5.507812 -144.683594 -4.589844 -138.441406 6.792969 -136.421875 C 2.9375 -133.117188 -2.753906 -131.648438 -8.8125 -130.914062 L -1.285156 -120.445312 C 21.847656 -122.648438 31.949219 -140.828125 12.300781 -145.96875 L 22.949219 -152.761719 L 16.890625 -162.859375 Z M 0.183594 -111.449219 C 14.136719 -80.972656 24.785156 -47.1875 23.5 -13.402344 C 23.316406 -8.8125 22.765625 -4.039062 22.398438 0.550781 C 29.011719 1.285156 35.070312 2.019531 41.863281 3.121094 C 42.964844 -8.445312 43.699219 -16.890625 42.964844 -28.460938 C 41.128906 -58.9375 31.949219 -87.949219 20.195312 -116.222656 Z M 0.183594 -111.449219 "/></g></g></g></svg>