<svg xmlns="http://www.w3.org/2000/svg" xmlns:xlink="http://www.w3.org/1999/xlink" width="500" zoomAndPan="magnify" viewBox="0 0 375 374.999991" height="500" preserveAspectRatio="xMidYMid meet" version="1.0"><defs><g/></defs><g fill="#f4eed2" fill-opacity="1"><g transform="translate(83.343544, 196.209105)"><g><path d="M 155.140625 -151.65625 C 115.484375 -178.238281 81.058594 -174.753906 50.988281 -149.476562 C 10.460938 -115.921875 19.175781 -44.015625 68.855469 -23.097656 C 45.757812 -5.230469 31.8125 15.6875 23.53125 44.015625 C 17.433594 63.625 16.996094 84.109375 23.96875 104.589844 C 54.039062 185.210938 156.449219 186.082031 217.023438 137.273438 L 204.386719 88.03125 C 163.421875 145.117188 62.316406 130.738281 61.445312 71.90625 C 63.191406 9.585938 129.429688 -9.585938 193.054688 -18.738281 L 184.777344 -69.726562 C 177.804688 -64.0625 142.941406 -53.167969 126.378906 -47.9375 L 126.378906 -48.371094 L 125.945312 -48.371094 C 110.253906 -46.195312 88.464844 -54.910156 80.621094 -64.0625 C 47.066406 -109.382812 117.226562 -144.246094 154.269531 -105.027344 Z M 155.140625 -151.65625 "/></g></g></g></svg>