<svg xmlns="http://www.w3.org/2000/svg" xmlns:xlink="http://www.w3.org/1999/xlink" width="500" zoomAndPan="magnify" viewBox="0 0 375 374.999991" height="500" preserveAspectRatio="xMidYMid meet" version="1.0"><defs><g/></defs><g fill="#f4eed2" fill-opacity="1"><g transform="translate(-5.968105, 274.030621)"><g><path d="M 240.613281 -208.445312 C 228.796875 -211.070312 218.292969 -203.519531 215.667969 -192.359375 C 213.367188 -181.199219 220.589844 -169.382812 231.75 -167.414062 C 243.570312 -165.113281 254.074219 -171.679688 256.699219 -183.496094 C 258.996094 -194.65625 252.105469 -206.476562 240.613281 -208.445312 Z M 273.113281 -135.898438 C 240.941406 -114.890625 215.339844 -69.917969 205.492188 -34.46875 C 201.550781 -34.46875 197.285156 -36.4375 191.375 -45.300781 C 185.46875 -53.835938 179.230469 -61.710938 179.230469 -82.722656 C 157.238281 -86.988281 150.671875 -88.300781 132.617188 -93.554688 C 139.839844 -67.621094 150.34375 -45.957031 154.9375 -20.679688 C 162.816406 20.351562 95.195312 60.070312 61.054688 15.429688 C 29.214844 -24.621094 50.550781 -62.699219 74.515625 -92.898438 L 48.253906 -119.816406 C 3.609375 -83.050781 -1.96875 -0.328125 26.917969 35.78125 C 57.445312 78.125 111.28125 82.722656 139.511719 69.261719 C 163.472656 58.429688 187.4375 32.824219 189.40625 -5.253906 C 197.285156 1.96875 207.460938 5.253906 219.605469 5.582031 C 247.835938 6.238281 286.242188 1.96875 310.535156 -5.910156 C 348.613281 -18.382812 389.644531 -50.222656 375.859375 -97.492188 C 363.054688 -142.464844 308.894531 -160.847656 273.113281 -135.898438 Z M 301.34375 -109.640625 C 313.816406 -111.9375 338.4375 -98.148438 343.03125 -84.691406 C 350.910156 -61.710938 312.832031 -44.316406 297.730469 -39.0625 C 280.003906 -33.484375 258.996094 -29.542969 239.957031 -29.542969 C 240.285156 -32.496094 243.570312 -41.359375 244.226562 -42.015625 C 253.417969 -64.667969 274.425781 -104.386719 301.34375 -109.640625 Z M 301.34375 -109.640625 "/></g></g></g></svg>