<svg xmlns="http://www.w3.org/2000/svg" xmlns:xlink="http://www.w3.org/1999/xlink" width="500" zoomAndPan="magnify" viewBox="0 0 375 374.999991" height="500" preserveAspectRatio="xMidYMid meet" version="1.0"><defs><g/></defs><g fill="#d4e3f6" fill-opacity="1"><g transform="translate(30.681094, 325.571033)"><g><path d="M 95.433594 -307.992188 C 63.765625 -241.621094 79.382812 -144.453125 81.117188 -112.785156 C 88.058594 -112.785156 95.433594 -113.21875 102.375 -113.652344 C 96.734375 -103.675781 91.964844 -94.132812 87.625 -84.589844 C 83.722656 -76.347656 75.480469 -58.996094 72.007812 -45.113281 L 48.585938 -58.996094 L 13.449219 -32.96875 C 62.898438 16.917969 148.355469 13.015625 210.386719 -7.375 C 261.574219 -24.292969 314.929688 -65.503906 297.144531 -128.402344 C 280.664062 -188.699219 208.652344 -211.253906 161.371094 -179.15625 C 148.355469 -170.046875 135.34375 -159.632812 124.929688 -146.621094 C 122.761719 -182.625 116.253906 -222.535156 140.113281 -283.699219 Z M 212.125 -284.132812 C 196.507812 -287.601562 182.625 -277.625 179.15625 -262.875 C 176.117188 -248.128906 185.664062 -232.511719 200.410156 -229.910156 C 216.027344 -226.871094 229.910156 -235.546875 233.378906 -251.164062 C 236.414062 -265.914062 227.304688 -281.53125 212.125 -284.132812 Z M 198.675781 -144.453125 C 215.160156 -147.054688 247.695312 -129.269531 253.765625 -111.484375 C 264.179688 -81.117188 213.425781 -58.128906 193.902344 -51.1875 C 170.914062 -43.8125 142.71875 -38.605469 117.558594 -38.605469 C 117.992188 -42.945312 122.761719 -53.789062 123.195312 -55.089844 C 135.34375 -84.589844 163.105469 -137.511719 198.675781 -144.453125 Z M 198.675781 -144.453125 "/></g></g></g></svg>