<svg xmlns="http://www.w3.org/2000/svg" xmlns:xlink="http://www.w3.org/1999/xlink" width="500" zoomAndPan="magnify" viewBox="0 0 375 374.999991" height="500" preserveAspectRatio="xMidYMid meet" version="1.0"><defs><g/></defs><g fill="#302e72" fill-opacity="1"><g transform="translate(13.364667, 308.198392)"><g><path d="M 226.167969 -241.53125 C 257.746094 -189.042969 340.960938 -81.933594 261.589844 -34.566406 C 222.328125 -10.667969 116.070312 8.960938 77.238281 -36.699219 C 25.175781 -95.589844 132.289062 -136.128906 177.09375 -112.65625 C 182.640625 -127.167969 188.191406 -140.394531 193.738281 -155.332031 C 121.621094 -185.628906 -25.605469 -138.6875 15.789062 -32.003906 C 23.898438 -11.523438 52.0625 14.082031 73.398438 21.335938 C 142.101562 46.085938 219.769531 41.820312 283.777344 9.386719 C 395.15625 -46.941406 311.941406 -210.808594 262.015625 -281.21875 Z M 214.21875 -139.542969 C 207.820312 -134.421875 201.417969 -128.445312 196.722656 -122.046875 C 192.03125 -115.644531 189.898438 -106.683594 191.175781 -102.84375 C 192.457031 -99.003906 195.445312 -96.015625 198.003906 -94.308594 C 200.992188 -93.027344 202.273438 -91.746094 210.808594 -90.46875 C 205.6875 -88.332031 200.992188 -85.773438 196.296875 -84.066406 C 191.605469 -81.933594 184.347656 -80.226562 174.535156 -77.664062 C 180.082031 -69.558594 186.054688 -61.875 192.03125 -53.339844 C 203.125 -57.609375 227.023438 -60.597656 242.386719 -78.09375 C 255.613281 -90.039062 250.492188 -112.230469 223.183594 -112.65625 C 232.996094 -119.484375 241.53125 -124.605469 244.945312 -126.3125 C 246.652344 -127.167969 247.503906 -128.019531 248.359375 -128.445312 L 230.4375 -151.917969 Z M 214.21875 -139.542969 "/></g></g></g></svg>