<svg xmlns="http://www.w3.org/2000/svg" xmlns:xlink="http://www.w3.org/1999/xlink" width="500" zoomAndPan="magnify" viewBox="0 0 375 374.999991" height="500" preserveAspectRatio="xMidYMid meet" version="1.0"><defs><g/></defs><g fill="#d4c8eb" fill-opacity="1"><g transform="translate(47.409947, 166.626732)"><g><path d="M 163.039062 -149.71875 C 121.246094 -150.179688 73.941406 -120.328125 81.289062 -73.023438 C 32.148438 -60.164062 9.183594 -15.15625 9.183594 30.3125 C 9.183594 91.851562 52.816406 169.46875 97.824219 202.996094 L 131.808594 146.046875 C 93.691406 119.410156 11.941406 -2.296875 101.039062 -32.148438 C 294.847656 114.816406 332.96875 -149.261719 163.039062 -149.71875 Z M 161.203125 -107.46875 C 186.003906 -109.304688 214.015625 -99.660156 224.582031 -78.074219 C 232.386719 -57.867188 217.230469 -28.933594 194.269531 -33.984375 C 166.714844 -35.363281 129.511719 -62.917969 121.707031 -80.832031 C 128.136719 -97.363281 143.75 -105.632812 161.203125 -107.46875 Z M 161.203125 -107.46875 "/></g></g></g></svg>