<svg xmlns="http://www.w3.org/2000/svg" xmlns:xlink="http://www.w3.org/1999/xlink" width="500" zoomAndPan="magnify" viewBox="0 0 375 374.999991" height="500" preserveAspectRatio="xMidYMid meet" version="1.0"><defs><g/></defs><g fill="#302e72" fill-opacity="1"><g transform="translate(53.677227, 289.219793)"><g><path d="M 190.957031 -276.191406 C 162.683594 -250.375 122.523438 -260.207031 107.769531 -271.683594 L 95.070312 -238.898438 C 123.753906 -218.820312 168.828125 -217.183594 201.199219 -239.308594 Z M 204.890625 -188.496094 C 117.195312 -234.394531 57.777344 -103.671875 129.898438 -33.601562 C 136.867188 -26.226562 143.011719 -22.539062 151.207031 -17.621094 C 159.8125 -13.523438 167.597656 -8.605469 177.84375 -6.964844 C 166.371094 6.148438 148.75 18.03125 128.671875 22.128906 C 104.492188 26.636719 80.316406 14.34375 67.613281 -6.964844 C 56.960938 -24.175781 52.042969 -46.304688 69.664062 -77.449219 L 26.226562 -105.722656 C 10.246094 -88.921875 4.507812 -53.679688 8.605469 -30.734375 C 24.175781 69.253906 160.222656 109.820312 222.507812 9.425781 L 228.246094 -0.820312 C 245.867188 -38.109375 248.734375 -95.886719 245.046875 -121.292969 C 241.769531 -148.339844 232.753906 -174.15625 204.890625 -188.496094 Z M 171.695312 -150.796875 C 227.015625 -144.652344 205.707031 -77.449219 197.101562 -43.847656 L 184.808594 -48.761719 C 146.699219 -65.972656 124.164062 -138.09375 171.695312 -150.796875 Z M 171.695312 -150.796875 "/></g></g></g></svg>