<svg xmlns="http://www.w3.org/2000/svg" xmlns:xlink="http://www.w3.org/1999/xlink" width="500" zoomAndPan="magnify" viewBox="0 0 375 374.999991" height="500" preserveAspectRatio="xMidYMid meet" version="1.0"><defs><g/></defs><g fill="#f1e5b0" fill-opacity="1"><g transform="translate(49.398279, 284.609446)"><g><path d="M 196.960938 -284.875 C 167.796875 -258.25 126.375 -268.390625 111.160156 -280.226562 L 98.058594 -246.414062 C 127.644531 -225.703125 174.136719 -224.011719 207.527344 -246.835938 Z M 211.332031 -194.425781 C 120.882812 -241.765625 59.597656 -106.933594 133.984375 -34.660156 C 141.171875 -27.050781 147.511719 -23.246094 155.964844 -18.175781 C 164.839844 -13.949219 172.871094 -8.875 183.4375 -7.183594 C 171.601562 6.339844 153.425781 18.597656 132.71875 22.824219 C 107.78125 27.472656 82.84375 14.792969 69.738281 -7.183594 C 58.75 -24.9375 53.679688 -47.761719 71.851562 -79.882812 L 27.050781 -109.046875 C 10.566406 -91.71875 4.648438 -55.367188 8.875 -31.699219 C 24.9375 71.429688 165.261719 113.273438 229.507812 9.722656 L 235.425781 -0.84375 C 253.597656 -39.308594 256.558594 -98.902344 252.753906 -125.109375 C 249.371094 -153.003906 240.074219 -179.632812 211.332031 -194.425781 Z M 177.097656 -155.539062 C 234.15625 -149.199219 212.179688 -79.882812 203.300781 -45.226562 L 190.621094 -50.296875 C 151.3125 -68.050781 128.066406 -142.4375 177.097656 -155.539062 Z M 177.097656 -155.539062 "/></g></g></g></svg>