<svg xmlns="http://www.w3.org/2000/svg" xmlns:xlink="http://www.w3.org/1999/xlink" width="500" zoomAndPan="magnify" viewBox="0 0 375 374.999991" height="500" preserveAspectRatio="xMidYMid meet" version="1.0"><defs><g/></defs><g fill="#302e72" fill-opacity="1"><g transform="translate(0.932597, 248.950846)"><g><path d="M 259.28125 -207.699219 C 238.441406 -206.671875 219.996094 -188.910156 215.554688 -159.191406 L 234.34375 -154.066406 C 244.25 -188.566406 279.09375 -180.710938 286.269531 -158.507812 L 294.464844 -190.960938 C 284.21875 -202.230469 273.285156 -209.0625 259.28125 -207.699219 Z M 51.582031 -125.371094 C -41.335938 -59.441406 16.054688 119.222656 141.085938 72.078125 C 167.046875 61.488281 194.375 26.988281 197.449219 -10.25 C 198.472656 -1.367188 220.335938 1.707031 229.5625 -1.367188 C 242.882812 -5.464844 253.132812 -16.398438 261.671875 -30.402344 C 315.644531 55.339844 406.171875 -62.171875 340.925781 -118.195312 L 312.570312 -95.308594 C 319.402344 -86.769531 329.3125 -72.421875 329.3125 -60.464844 C 329.3125 -46.117188 311.886719 -30.746094 295.148438 -45.777344 C 285.242188 -54.65625 283.195312 -65.246094 282.511719 -77.886719 C 284.21875 -81.304688 291.050781 -93.601562 294.808594 -101.457031 L 259.964844 -112.390625 C 255.179688 -86.425781 215.898438 -0.683594 194.375 -56.707031 C 190.960938 -65.929688 188.910156 -78.226562 188.910156 -94.285156 L 141.425781 -102.824219 C 148.601562 -75.496094 156.113281 -49.875 161.582031 -23.570312 C 162.949219 -16.398438 162.605469 -9.566406 160.214844 -2.390625 C 147.234375 37.234375 92.917969 46.117188 65.246094 15.371094 C 47.824219 -3.417969 43.726562 -22.546875 48.167969 -44.75 C 52.609375 -64.5625 64.222656 -83.351562 76.863281 -98.726562 Z M 51.582031 -125.371094 "/></g></g></g></svg>