<svg xmlns="http://www.w3.org/2000/svg" xmlns:xlink="http://www.w3.org/1999/xlink" width="500" zoomAndPan="magnify" viewBox="0 0 375 374.999991" height="500" preserveAspectRatio="xMidYMid meet" version="1.0"><defs><g/></defs><g fill="#f1e5b0" fill-opacity="1"><g transform="translate(55.911497, 250.515629)"><g><path d="M 117.753906 -176.957031 C 98.019531 -175.984375 80.550781 -159.164062 76.347656 -131.019531 L 94.140625 -126.164062 C 103.519531 -158.839844 136.519531 -151.398438 143.3125 -130.371094 L 151.074219 -161.105469 C 141.371094 -171.78125 131.019531 -178.25 117.753906 -176.957031 Z M 160.457031 -105.785156 C 174.691406 -92.199219 190.542969 -77.964844 195.394531 -55.320312 C 199.277344 -0.324219 34.9375 8.734375 53.703125 -52.730469 C 57.90625 -66.640625 72.789062 -74.730469 86.050781 -79.582031 C 79.257812 -88.964844 70.847656 -97.375 64.054688 -107.402344 C 41.410156 -97.375 20.378906 -78.609375 14.882812 -51.761719 C 10.675781 -25.234375 24.910156 3.882812 50.144531 13.910156 C 96.726562 33.96875 152.691406 28.792969 199.925781 1.292969 C 215.777344 -10.027344 229.6875 -24.910156 233.890625 -48.847656 C 236.15625 -74.082031 222.894531 -97.699219 207.042969 -116.136719 Z M 160.457031 -105.785156 "/></g></g></g><g fill="#f1e5b0" fill-opacity="1"><g transform="translate(303.078431, 250.515629)"><g/></g></g><g fill="#f1e5b0" fill-opacity="1"><g transform="translate(335.426013, 250.515629)"><g/></g></g></svg>