<svg xmlns="http://www.w3.org/2000/svg" xmlns:xlink="http://www.w3.org/1999/xlink" width="500" zoomAndPan="magnify" viewBox="0 0 375 374.999991" height="500" preserveAspectRatio="xMidYMid meet" version="1.0"><defs><g/></defs><g fill="#d3ebda" fill-opacity="1"><g transform="translate(29.05896, 178.403522)"><g><path d="M 216.460938 -170.046875 C 169.613281 -158.765625 131.003906 -133.605469 102.808594 -92.832031 C 89.359375 -70.707031 89.359375 -40.777344 111.050781 -19.085938 C 128.402344 -5.207031 149.222656 0 170.914062 0.867188 C 192.601562 0.867188 214.292969 -0.433594 235.980469 1.734375 L 235.980469 2.167969 C 212.558594 67.238281 117.558594 84.589844 74.613281 34.269531 C 63.332031 15.183594 49.886719 -19.085938 78.082031 -61.164062 C 62.03125 -66.804688 49.453125 -80.683594 33.835938 -86.757812 C 13.882812 -57.261719 5.640625 -12.578125 14.316406 26.027344 C 22.125 57.261719 45.113281 81.984375 72.875 95.867188 C 129.703125 122.328125 193.035156 111.484375 241.621094 71.574219 C 262.007812 52.054688 281.53125 26.894531 285 -0.867188 C 287.601562 -84.15625 127.96875 -15.183594 151.828125 -78.949219 C 170.046875 -104.542969 204.75 -124.496094 237.71875 -125.367188 C 248.128906 -125.367188 252.464844 -115.386719 250.730469 -106.710938 L 294.109375 -109.316406 C 297.144531 -128.402344 296.277344 -149.65625 276.757812 -163.539062 C 259.839844 -173.082031 238.152344 -173.082031 216.460938 -170.046875 Z M 198.675781 140.546875 C 168.746094 167.875 126.234375 157.464844 110.617188 145.320312 L 97.167969 180.023438 C 127.535156 201.277344 175.25 203.015625 209.519531 179.589844 Z M 198.675781 140.546875 "/></g></g></g></svg>